<?xml version="1.0" encoding="utf-8"?>
<!-- Generator: Adobe Illustrator 18.0.0, SVG Export Plug-In . SVG Version: 6.00 Build 0)  -->
<!DOCTYPE svg PUBLIC "-//W3C//DTD SVG 1.1//EN" "http://www.w3.org/Graphics/SVG/1.1/DTD/svg11.dtd">
<svg version="1.1" id="Layer_1" xmlns="http://www.w3.org/2000/svg" xmlns:xlink="http://www.w3.org/1999/xlink" x="0px" y="0px"
	 viewBox="0 0 22.8 22" enable-background="new 0 0 22.8 22" xml:space="preserve">
<g>
	<path fill="#666766" d="M12.2,13.8c3.5-3.3,7.1-6.6,10.6-9.9c-0.9-0.9-1.7-1.7-2.5-2.6c-3.5,3.3-7.1,6.6-10.6,9.9
		C10.5,12,11.4,12.9,12.2,13.8z"/>
	<path fill="#666766" d="M7.4,15.7c0.8,0,1.6,0,2.4,0c0.1,0,0.2,0,0.2-0.1c0.3-0.2,0.5-0.5,0.8-0.8c-0.9-0.9-1.7-1.7-2.5-2.6
		c-0.1,0.1-0.3,0.2-0.4,0.3c-0.4,0.3-0.6,0.7-0.6,1.3C7.4,14.5,7.4,15.1,7.4,15.7C7.4,15.7,7.4,15.7,7.4,15.7z"/>
	<path fill="#666766" d="M21,9c-0.6,0-1,0.4-1,1v7c0,1.7-1.3,3-3,3H5c-1.7,0-3-1.3-3-3V5c0-1.7,1.3-3,3-3h11c0.6,0,1-0.4,1-1
		s-0.4-1-1-1H5C2.2,0,0,2.2,0,5v12c0,2.8,2.2,5,5,5h12c2.8,0,5-2.2,5-5v-7C22,9.4,21.6,9,21,9z"/>
</g>
</svg>
